<?xml version="1.0" encoding="utf-8"?>
<!-- Generator: Adobe Illustrator 28.3.0, SVG Export Plug-In . SVG Version: 6.00 Build 0)  -->
<svg version="1.1" id="Layer_1" xmlns="http://www.w3.org/2000/svg" xmlns:xlink="http://www.w3.org/1999/xlink" x="0px" y="0px"
	 viewBox="0 0 75 70" style="enable-background:new 0 0 75 70;" xml:space="preserve">
<style type="text/css">
	.st0{fill:#27466F;}
</style>
<path class="st0" d="M56.5,42v2.1c0,0.1,0,0.1,0,0.2c-0.9,0.2-1.8,0.6-2.5,1.2c-1.8,1.5-2.1,4.3-0.8,5.9c1.8,2.2,5.4,1.5,6.8,3
	c0.7,0.7,0.7,2,0.1,2.9c-1.2,1.7-4,1.9-6-0.3c-0.3-0.4-0.9-0.4-1.2-0.1c-0.4,0.3-0.4,0.9-0.1,1.2c1,1.1,2.3,1.9,3.7,2.1v1.5
	c0,0.5,0.4,0.9,0.9,0.9s0.9-0.4,0.9-0.9v-1.4c3.8-0.6,5.1-4.7,3-7.1c-1.9-2.1-5.4-1.4-6.7-3c-0.8-1-0.4-2.7,0.5-3.5
	c1-0.8,2.6-1.1,4.2-0.7c0.5,0.1,0.9-0.2,1.1-0.6c0.1-0.5-0.2-0.9-0.6-1.1c-0.5-0.1-1.1-0.2-1.6-0.2c0-0.3,0-1.5,0-2.1
	c0-0.5-0.4-0.9-0.9-0.9C56.9,41.1,56.5,41.5,56.5,42z"/>
<path class="st0" d="M1.6,9.2C0.5,21.3-0.2,33.5,0,45.6C0.2,55,2.5,58.8,13.9,61c9.4,1.8,17.9,2.1,28.2,0.2c1.2,2.1,2.9,4,4.8,5.5
	c2,1.6,3.9,2.6,6.5,3c5.4,1,11.4-0.3,15.5-4c3.5-3.1,5.9-8.1,5.6-12.8c0.7-10.5-8.2-18.8-18.4-17.6c0-37.7-0.4-20.1,0-24.8
	c0.3-3.7-2.1-5.4-5.4-6.9c-13.9-6-40.4-4-47.2,2.5C2.7,6.7,1.9,7.8,1.7,8.9L1.6,9.2z M54.3,25.1C37.2,32.4,19.2,32.4,3.6,25V13.3
	c4,3.6,13.9,5.9,25.4,5.9c10.8,0,21-2.8,25.2-6.6C54.3,15.6,54.3,19,54.3,25.1z M40.5,56.2C40.5,56.2,40.5,56.2,40.5,56.2
	C29,58.1,12.8,57.4,7.2,53.4c-1.7-1.2-3.6-3.5-3.6-5.6v-5.9C11.5,44.6,19.7,46,28,46c4.7,0,9.4-0.5,14.1-1.3
	C40.4,48.2,39.8,52.3,40.5,56.2z M43.3,42.7c-12.7,2.7-26.7,2-39.6-2.6c0,0-0.1,0-0.1,0V26.9c7.9,3.6,16.3,5.4,24.9,5.4
	c8.6,0,17.3-1.8,25.8-5.3v8.6C49.4,36.6,45.5,39.5,43.3,42.7z M72.5,49.4c1.3,8.1-4.2,15.8-12.3,17.1c-5.8,0.9-11.8-1.8-15-6.8
	c-2.8-4.5-3.2-10.2-1.1-14.6c2-4.3,6.2-7.2,11.3-8C63.6,35.8,71.2,41.3,72.5,49.4z M4.6,7.4c6.3-5.9,32-8,45.3-2.2
	c2.2,1,4.4,2.2,4.4,4.6c-1.9,3.7-12.5,7.6-25.3,7.6c-11.5,0-22-2.6-24.9-6.1c-0.4-0.5-0.7-1.1-0.7-1.7C3.4,8.8,4,7.9,4.6,7.4z"/>
<path class="st0" d="M62.8,19.1c-0.4-0.2-1,0-1.1,0.4l-2.4,5.5c-0.2,0.4,0,1,0.4,1.2c0.4,0.2,1,0,1.2-0.4l2.4-5.6
	C63.4,19.8,63.2,19.3,62.8,19.1z"/>
<path class="st0" d="M63.7,28l4.7-4.4c0.4-0.3,0.4-0.9,0-1.2c-0.3-0.4-0.9-0.4-1.2,0l-4.7,4.4c-0.4,0.3-0.4,0.9,0,1.2
	C62.8,28.4,63.3,28.4,63.7,28z"/>
<path class="st0" d="M65.6,31.7l4.4-0.5c0.5-0.1,0.8-0.5,0.8-1c-0.1-0.5-0.5-0.8-1-0.8l-4.4,0.5c-0.5,0.1-0.8,0.5-0.8,1
	C64.7,31.4,65.1,31.7,65.6,31.7z"/>
</svg>
