<?xml version="1.0" encoding="utf-8"?>
<!-- Generator: Adobe Illustrator 28.3.0, SVG Export Plug-In . SVG Version: 6.00 Build 0)  -->
<svg version="1.1" id="Layer_1" xmlns="http://www.w3.org/2000/svg" xmlns:xlink="http://www.w3.org/1999/xlink" x="0px" y="0px"
	 viewBox="0 0 87 70" style="enable-background:new 0 0 87 70;" xml:space="preserve">
<style type="text/css">
	.st0{fill:#27466F;}
</style>
<path class="st0" d="M0.8,16.9c0.3,0.7,0.5,1.4,0.8,2.1c2.6-0.6,5.3-0.4,8-0.3c3.7,10.1,7.3,20.2,11,30.3c0.9,2.6,1.9,5.2,4,7
	c1.8,1.6,4.2,2.2,6.7,2.4c-1.7,1.4-2.6,3.6-2.5,5.9c0.3,5.7,6.2,7.2,10.6,4.4c4-2.5,4.3-7.5,1.3-10.2c4.5,0.1,9.1,0.2,15.2-0.1
	c-1.7,1.4-2.6,3.6-2.5,5.9c0.2,3.7,2.6,5.6,6.1,5.6c7.4,0,10.4-8.1,4.9-11.9c0.2,0,0.3,0,0.5,0c2.5-0.2,4.6-1.9,5.3-4.3
	c2.8-9,4.9-18.7,6.1-28.1c0.2-1.4-0.9-2.7-2.3-2.8c-6.7-0.3-13.6-0.5-20.4-0.5l0.3-19.4c0-1.4-1.1-2.6-2.5-2.6L44.3,0
	c-0.9,0-1.7,0.4-2.2,1.1c-0.8,0.6-1.4,1.6-1.7,2.6C40,5.2,40.1,5.3,40,22.2c-8.3,0.1-16.8,0.5-25.3,1.1c-0.9-2.4-1.8-4.9-2.7-7.5
	c-0.1-0.4-0.5-0.7-0.9-0.7L1,14.9C-0.2,14.9-0.4,16.6,0.8,16.9z M40.6,63.9c-1,4.6-9.5,6.1-9.8,0.2c-0.3-4.5,5-7.4,8.5-4.2
	C40.4,60.9,40.9,62.5,40.6,63.9z M65.2,64c-0.9,4.1-7,4.8-8.9,2.7c-0.7-0.7-0.8-1.8-0.9-2.5c-0.3-4.6,5-7.3,8.5-4.2
	C65,61,65.5,62.6,65.2,64z M42.9,28.8c0.6-0.5,0.2,0.4,0.7-26.3c0-0.3,0.2-0.5,0.6-0.6l7.1,0.1c0.3,0,0.6,0.3,0.6,0.6
	c-0.4,23.9-0.2,11.1-0.4,25.7c0,0.5,0.4,1,1,1l7.3,0.1c-4.1,4-8,8-12.1,12.1c-4.3-3.9-9-8-13-12.7C42.4,29,42.4,29.3,42.9,28.8z
	 M40,24.2c0,1,0,1.9,0,2.9l-7.5-0.2c-0.8,0-1.2,0.7-0.9,1.4c-0.2,0.9-0.4,1.5,0.2,2.1c4.3,4.4,8.7,8.8,13,13.2
	c0.5,0.5,1,0.7,1.7,0.9c0.4,0.1,1-0.2,1.4-0.5c0.2,0,0.3-0.1,0.5-0.2c4.9-4.8,9.5-9.6,14.5-14.4c0.6-0.6,0.2-1.7-0.7-1.7l-8.6-0.1
	l0.1-3.3c6.8,0.1,13.7,0.2,20.4,0.5c0.3,0,0.5,0.3,0.5,0.6c-1.2,9.3-3.3,19-6,27.8c-0.5,1.6-1.9,2.8-3.6,2.9
	c-12.3,0.9-24,0.9-34.8,0c-1.5-0.1-2.8-1-3.4-2.4c-3.4-7.7-7-16.8-11.2-28.3C23.7,24.7,31.9,24.3,40,24.2z"/>
<path class="st0" d="M34.3,61.7C34.3,61.7,34.3,61.8,34.3,61.7C34.3,61.8,34.3,61.8,34.3,61.7c-1.1,0.6-1.4,2-0.9,3
	c0.6,1,1.9,1.4,2.9,0.8c1-0.6,1.4-1.9,0.9-2.9C36.7,61.6,35.4,61.2,34.3,61.7z"/>
<path class="st0" d="M59.2,61.2C59.2,61.2,59.2,61.2,59.2,61.2C59.2,61.2,59.1,61.2,59.2,61.2c-1.9,1.1-1.3,4.1,1,4.1
	c1.7,0,2.6-1.8,1.9-3.2C61.6,61.1,60.2,60.7,59.2,61.2z"/>
<path class="st0" d="M71.4,19.7c0.5,0,0.9-0.3,1-0.8l0.8-4.7c0.1-0.5-0.3-1.1-0.8-1.2c-0.5-0.1-1.1,0.3-1.2,0.8l-0.8,4.7
	C70.3,19.1,70.8,19.7,71.4,19.7z"/>
<path class="st0" d="M80.5,14.8c-0.4-0.3-1.1-0.3-1.4,0.2l-3.7,4.7c-0.5,0.7,0,1.6,0.8,1.6c0.3,0,0.6-0.1,0.8-0.4l3.7-4.7
	C81,15.8,80.9,15.2,80.5,14.8z"/>
<path class="st0" d="M85.2,22.9l-6.8,1.2c-1.3,0.2-0.9,2.2,0.4,2l6.8-1.2c0.5-0.1,0.9-0.6,0.8-1.2C86.3,23.1,85.8,22.8,85.2,22.9z"
	/>
</svg>
