<?xml version="1.0" encoding="utf-8"?>
<!-- Generator: Adobe Illustrator 28.3.0, SVG Export Plug-In . SVG Version: 6.00 Build 0)  -->
<svg version="1.1" id="Layer_1" xmlns="http://www.w3.org/2000/svg" xmlns:xlink="http://www.w3.org/1999/xlink" x="0px" y="0px"
	 viewBox="0 0 75 70" style="enable-background:new 0 0 75 70;" xml:space="preserve">
<style type="text/css">
	.st0{fill:#27466F;}
</style>
<path class="st0" d="M65,47.8c0.2-0.5,0.3-1.1,0.3-1.7c1.1-15.2,1.3-28.4,0.6-40.3c0-2.9-2.3-5.1-5-5.1c0,0,0,0,0,0
	c-16.7-0.7-37.9-1.2-53.5,0C6.6,0.7,5.7,1,5,1.4C3.3,1.6,2,3.2,1.3,4.7c-0.9,1.9-0.9,4.1-1,6.2C0.1,20.8,0.2,30.8,0,40.7
	C-0.2,52.3,1.1,53,12.3,53.5c14.2,0.7,28.5,0.1,42.7-0.5c0.1,3.8,0.2,7.7,0.3,11.5c0,0.3,0.3,0.6,0.6,0.8c0.3,0.5,1,0.5,1.3,0.1
	c1-1.2,1.9-2.1,3.8-4.2c1.4,2.5,2.9,5.1,4.3,7.6c0.4,0.7,1.1,1,1.9,1.1C67.5,70,67.7,70,68,70c1.6-0.2,2.7-0.8,3.6-2.2
	c0.4-0.6,0.4-1.3,0.1-1.9c-1.6-2.7-3.1-5.4-4.8-8.4c2.3-0.3,4-0.4,7.2-0.8c0.7-0.1,1-1,0.5-1.4C71.6,52.7,68.3,50.2,65,47.8z
	 M56.9,42.4c-0.6-0.3-1.3,0.1-1.3,0.7l0,0.2L55,44.4c-0.2,0.4-0.1,0.2,0,5.1c-5.1,0.1-24,0.7-47.5-0.1c-1.8,0-3.4-1.5-3.4-3.4
	C3.4,37,3.3,27,3.7,15.3h61c0.3,14.5-0.8,30.7-1.1,31.5C61.6,45.4,59.1,43.8,56.9,42.4z M7.5,2.4c15.9-1.3,37.5-0.6,53.4,0
	c1.8,0,3.4,1.4,3.4,3.5c0.1,2.5,0.2,5.1,0.3,7.8H3.7c0.1-2.6,0.2-5.2,0.4-7.9C4.1,3.9,5.6,2.4,7.5,2.4z M65.6,56.1
	c-0.6,0.1-0.9,0.7-0.6,1.2c1.9,3.5,3.6,6.5,5.4,9.5l0.7-0.4l-0.7,0.5c-0.7,1.1-1.5,1.4-2.5,1.4c-0.1-0.1-5.1-9.4-5.2-9.6
	c-0.3-0.5-1-0.5-1.3-0.1c-1.1,1.3-2.5,2.7-3.8,4.1c0-1.2-0.1-18-0.1-18.1c4.8,3.1,10.2,7,14.7,10.7C69.6,55.6,67.9,55.7,65.6,56.1z"
	/>
<path class="st0" d="M8.6,10.7c1.4-0.3,2-1.7,1.2-2.8C9.4,7.3,8.8,7,8.2,7C8.1,7,8,7,7.9,7C7.4,7,6.6,7.5,6.4,8.4
	C6.1,9.8,7.2,10.9,8.6,10.7z"/>
<path class="st0" d="M14.8,10.6c1.5,0,2.5-1.6,1.6-2.9c-0.6-0.9-1.7-0.9-1.5-0.9c-0.1,0-0.2,0-0.3,0.1c-0.1,0-0.2,0-0.3,0.1
	C12.4,7.7,12.7,10.6,14.8,10.6z"/>
<path class="st0" d="M22.2,10.7c1.4-0.3,2-1.7,1.2-2.8c-0.5-0.8-1.4-1-1.9-0.8c-0.1,0-0.2,0-0.3,0.1C19.2,7.9,19.8,11.1,22.2,10.7z"
	/>
<path class="st0" d="M33,8.5L33,8.5l22.7-0.3c0.5,0,0.8-0.4,0.8-0.8c0-0.5-0.4-0.8-0.8-0.8L33,6.9c-0.5,0-0.8,0.4-0.8,0.8
	C32.2,8.2,32.6,8.5,33,8.5z"/>
<path class="st0" d="M23.4,20.8H10.4c-2,0-3.5,1.4-3.5,3.2v10.4c0,1.7,1.6,3.1,3.5,3.2c16.8,0.2,11.8,0.2,12.8,0.2
	c1.9,0,3.5-1.4,3.5-3.1L27,24.1c0-0.8-0.3-1.6-0.9-2.2C25.4,21.2,24.5,20.8,23.4,20.8z M25,34.5c0,0.8-0.9,1.5-1.9,1.5l-12.7-0.2
	c-1,0-1.9-0.7-1.9-1.5V24c0-0.8,0.9-1.5,1.9-1.5h13.1c0.6,0,1.1,0.2,1.5,0.6c0.2,0.2,0.4,0.5,0.4,1L25,34.5z"/>
<path class="st0" d="M54.8,23.5h-19c-0.5,0-0.8,0.4-0.8,0.8s0.4,0.8,0.8,0.8h19c0.5,0,0.8-0.4,0.8-0.8S55.2,23.5,54.8,23.5z"/>
<path class="st0" d="M54.4,32.9h-23c-0.5,0-0.8,0.4-0.8,0.8c0,0.5,0.4,0.8,0.8,0.8h23c0.5,0,0.8-0.4,0.8-0.8
	C55.2,33.2,54.9,32.9,54.4,32.9z"/>
<path class="st0" d="M48.1,41.2H36.6c-0.5,0-0.8,0.4-0.8,0.8c0,0.5,0.4,0.8,0.8,0.8h11.5c0.5,0,0.8-0.4,0.8-0.8
	C48.9,41.6,48.6,41.2,48.1,41.2z"/>
</svg>
