<?xml version="1.0" encoding="utf-8"?>
<!-- Generator: Adobe Illustrator 28.3.0, SVG Export Plug-In . SVG Version: 6.00 Build 0)  -->
<svg version="1.1" id="Layer_1" xmlns="http://www.w3.org/2000/svg" xmlns:xlink="http://www.w3.org/1999/xlink" x="0px" y="0px"
	 viewBox="0 0 98 96" style="enable-background:new 0 0 98 96;" xml:space="preserve">
<style type="text/css">
	.st0{fill:#27466F;}
</style>
<path class="st0" d="M40.5,71.5c0,6.9,0,14,0,21.2c0,0,0,0.1,0,0.1c0,0.5,0.3,1,0.8,1.1c11.7,3.9,38.4,1.2,50.7-0.1
	c1.3-0.3,5.3,1,5.4-6.1c0.2-21.2,0.2-42,0.4-63.2c-0.6-0.8-2.7-3.3-3.8-3.2C80,22.9,70,22.9,57.5,22.5c-0.1-6.2-0.1-13.3-0.2-19.4
	c0-0.3-0.2-0.7-0.4-0.9C55.3,1,54.4-0.1,53.5,0C34.5,2,22.8,1.2,2,0.6c-0.9,0-1.9,0.3-1.9,1.2C0.2,24.9,0,46.3,0,69.3
	c0,0,0,0.1,0,0.1c0,0.5,0.3,1,0.8,1.1C10.4,73.7,26.5,72.7,40.5,71.5z M2.3,68.6c0-19.1,0.1-36.5,0.2-55.9
	c0.5,0.3,49.9,0.1,50.1,0.1c0,3.2-0.1,6.4-0.1,9.5c-2.6-0.1-6.6-0.2-10-0.3c-0.9,0-1.9,0.3-1.9,1.2c0,15.3-0.1,29-0.1,46
	C27.9,70.3,11.4,71.3,2.3,68.6z M42.7,92c0-19.7,0.1-37.5,0.2-57.5c0.3,0.2,49.6,0.3,50.1-0.1c-0.1,19.8-0.4,38.6-0.5,57.2
	C80.6,92.7,54.1,95.5,42.7,92z M93.1,23.8c0,2.9,0,5.8,0,8.8c-0.6-0.4-49.9-0.3-50.2-0.1c0-2.7,0-5.4,0-8.2
	C62.7,24.9,74.4,25.7,93.1,23.8z M52.6,2.4c0,2.7,0,5.5,0,8.3c-0.3-0.1-49.7-0.1-50.2,0.1c0-2.6,0-5.2,0-7.9
	C22.2,3.5,34,4.2,52.6,2.4z"/>
<path class="st0" d="M25.7,19.5c-0.5-0.8-1.6-0.6-2,0.1l-8.2,15.6c-0.3,0.6-0.1,1.2,0.5,1.5c0.6,0.3,1.2,0.1,1.5-0.5l2.5-4.8
	c0,0,0,0,0,0c8.8-0.8,8.5-0.6,9-0.9c0.8,1.6,1.5,3.3,2.1,4.8c0.2,0.6,0.9,0.8,1.5,0.6c0.6-0.2,0.8-0.9,0.6-1.5
	C31.3,30,28.9,24.7,25.7,19.5z M21.3,29.1l3.5-6.7c1.2,2,2.3,4.1,3.2,6.1L21.3,29.1z"/>
<path class="st0" d="M63.1,67.7c3.8,0.3,7-0.4,9.1-3.5c1.7-2.6,1.5-6.2-0.6-8.5c-0.5-0.6-1.1-1.1-1.8-1.5c0.9-0.6,1.7-1.3,2.2-2
	c1.8-2.7,1.6-6.1-0.4-8.4c-2-2.2-5.8-3.3-8.8-2.6c-0.2-0.1-0.4-0.2-0.6-0.2c0,0,0,0,0,0c-0.6,0-1.1,0.5-1.1,1.1l0.2,24.7
	C61.3,67.7,62.3,68.3,63.1,67.7z M70.3,63c-1,1.4-2.6,2.8-6.8,2.5l-0.1-10c2.3-0.7,5,0,6.4,1.7C71.3,58.8,71.5,61.2,70.3,63z
	 M69.9,45.2c1.3,1.5,1.4,3.8,0.2,5.6c-2,2.9-4.5,1.8-6.7,2.3l-0.1-9.8C65.5,42.8,68.5,43.7,69.9,45.2z"/>
<path class="st0" d="M28.5,46.8H7.3c-0.6,0-1.1,0.5-1.1,1.1s0.5,1.1,1.1,1.1h21.2c0.6,0,1.1-0.5,1.1-1.1S29.2,46.8,28.5,46.8z"/>
<path class="st0" d="M22.9,55.9H8.4c-0.6,0-1.1,0.5-1.1,1.1s0.5,1.1,1.1,1.1h14.6c0.6,0,1.1-0.5,1.1-1.1S23.6,55.9,22.9,55.9z"/>
<path class="st0" d="M73.1,74.6h-21c-0.6,0-1.1,0.5-1.1,1.1s0.5,1.1,1.1,1.1h21c0.6,0,1.1-0.5,1.1-1.1S73.7,74.6,73.1,74.6z"/>
<path class="st0" d="M65.4,83.1h-14c-0.6,0-1.1,0.5-1.1,1.1c0,0.6,0.5,1.1,1.1,1.1h14c0.6,0,1.1-0.5,1.1-1.1
	C66.6,83.6,66.1,83.1,65.4,83.1z"/>
<path class="st0" d="M6.9,8.5c1.7-0.6,1.5-2.8-0.2-3.2c-0.5-0.5-1.2-0.5-1.7,0C3.7,6.8,5,9.2,6.9,8.5z"/>
<path class="st0" d="M15.5,8c0.2-0.6,0.1-1.2-0.3-1.7c-0.9-1.1-2.5-0.8-3,0.5C12,7.4,12.1,8,12.5,8.5C13.4,9.5,15.1,9.2,15.5,8z"/>
<path class="st0" d="M20.1,8.8c1.4,0.9,3.2-0.6,2.6-2.2c-0.2-0.4-0.4-0.6-0.8-0.7c-0.7-0.9-2.2-0.3-2.5,0.9
	C19.2,7.6,19.4,8.4,20.1,8.8z"/>
<path class="st0" d="M48.2,27.6c-1-0.2-1.8,0.8-1.6,1.9c0.4,1.6,2.5,1.7,3,0.1C50,28.5,49.1,27.4,48.2,27.6z"/>
<path class="st0" d="M54.9,30.8c0.6,0.2,1.3,0,1.7-0.5c0.9-1,0.5-2.7-1-2.5c-0.4-0.3-1-0.3-1.4,0C53.2,28.6,53.6,30.4,54.9,30.8z"/>
<path class="st0" d="M63.7,30.3c0.4-0.7,0.2-1.7-0.4-2.2c-0.3-0.7-1.2-0.9-1.7-0.4c-0.6,0.5-0.8,1.3-0.5,2
	C61.5,30.8,63.1,31.3,63.7,30.3z"/>
</svg>
