<?xml version="1.0" encoding="utf-8"?>
<!-- Generator: Adobe Illustrator 28.3.0, SVG Export Plug-In . SVG Version: 6.00 Build 0)  -->
<svg version="1.1" id="Layer_1" xmlns="http://www.w3.org/2000/svg" xmlns:xlink="http://www.w3.org/1999/xlink" x="0px" y="0px"
	 viewBox="0 0 98 101" style="enable-background:new 0 0 98 101;" xml:space="preserve">
<style type="text/css">
	.st0{fill:#27466F;}
</style>
<path class="st0" d="M43.4,46h24.2c0.6,0,1.2-0.5,1.2-1.2s-0.5-1.2-1.2-1.2H43.4c-0.6,0-1.2,0.5-1.2,1.2S42.8,46,43.4,46z"/>
<path class="st0" d="M28.2,48.3h6.2c0.6,0,1.1-0.5,1.2-1.1l0.5-5.9c0.1-0.7-0.5-1.3-1.2-1.3h-6.7c-0.6,0-1.2,0.5-1.2,1.2v5.9
	C27.1,47.7,27.6,48.3,28.2,48.3z M29.4,42.3h4.2l-0.3,3.6h-4V42.3z"/>
<path class="st0" d="M35.1,54.5c0,0.6,0.5,1.2,1.2,1.2h17.6c0.6,0,1.2-0.5,1.2-1.2c0-0.6-0.5-1.2-1.2-1.2H36.3
	C35.7,53.4,35.1,53.9,35.1,54.5z"/>
<path class="st0" d="M48.8,60.3h-4.3c-0.6,0-1.2,0.5-1.2,1.2s0.5,1.2,1.2,1.2h4.3c0.6,0,1.2-0.5,1.2-1.2S49.4,60.3,48.8,60.3z"/>
<path class="st0" d="M91.6,95.8c1-0.9,1.4-2,1.4-3.2c-0.9-54.2-0.7-48.8-0.8-49.5c0-0.3-0.1-0.6-0.3-0.9
	c-11.5-12.5-26.8-29.6-39.8-41c-1.8-1.6-4.5-1.7-6.5-0.3C31.1,11.6,17.3,24,2.1,37.9c-0.6,0.3-1.1,0.7-1.5,1C0.1,39.5,0,39.6,0,40.2
	c0,54.2-0.2,51.2,0.3,53.1c0.3,1.1,1.1,2.3,2.1,2.7c0.1,0,0.2,0.1,0.3,0.1c0.1,0.1,0.2,0.1,0.4,0.2c1.2,1.1,3,1.6,4.6,2
	c4.6,1.1,2.2,0.8,89.5,2.7C96.4,98.5,94.1,96.7,91.6,95.8z M21,28.7c28.1,0.6,31.1,0.7,34.9,1.3c2.9,0.5,4.7,5.9,7.3,8.1
	c0.5,0.4,1,0.2,1.2,0.2c0,0,0.1,0,0.1-0.1c0.1,0,0.2-0.1,0.3-0.2c0.7-0.6,1.8-1.3,2.1-1.5c2.6-1.7,3.5-1.8,5-2.3
	c0.4-0.1,1-0.1,1.3,0.1c1.3,0.9,2.2,2.2,2.9,4.2c0.8,2,1.8,6.6,1.8,10.3c0,0.2,0,0.5,0,0.8L48.6,66.2c-1.3,0.7-2.9,0.7-4.2-0.2
	L21.3,50.4C21.4,43.1,21.2,36.9,21,28.7z M4,94.2c9.8-8.8,21.8-19.7,33-29.9c2.3,1.7,4.5,3.2,5.5,3.8c2.3,1.4,5,2.3,7.7,1.7
	c2.5-0.5,4.3-2,7.7-4.2c11.8,11.8,20.5,19.6,30.7,29C0.8,94.2,4.5,94.3,4,94.2z M59.8,64.3c9-5.7,18.6-10.7,27.5-17.5l2.6-1.5
	c0.7,50.5,0.8,47.2,0.6,47.9C79.7,83.3,71.6,76,59.8,64.3z M35.1,62.9c-9.5,8.6-17.5,15.9-31.8,28.8l0.4-50.5
	C15.9,49.6,25.9,56,35.1,62.9z M47,2.9c1.1-0.8,2.5-0.7,3.5,0.2c12.6,11.1,27.5,27.7,38.8,40l-9.1,5.2c0-4-1.6-9.9-1.9-10.5
	c-0.5-1.6-1.5-3.8-3.8-5.4c-0.4-0.2-0.8-0.4-1.2-0.5c-2.2-1.3-5.4-2.3-7.9-2.8c-0.5-0.1-5-0.8-8.4-1.1c-3.3-1.1-17.2-1.2-36.8-1.6
	c0,0,0,0,0,0c-0.1,0-0.2,0-0.3,0.1c-0.1,0-0.2-0.1-0.3-0.1c-0.6,0-1.2,0.6-1.1,1.2c0.2,8.3,0.4,14.3,0.4,21.3L4.4,38.9
	C19.3,25.4,32.8,13.3,47,2.9z"/>
<path class="st0" d="M78.8,19.4c0.1,0,0.2,0,0.3,0c0.5,0,1-0.3,1.1-0.9l2.1-7.8c0.2-0.6-0.2-1.3-0.8-1.4c-0.6-0.2-1.3,0.2-1.4,0.8
	L78,18C77.8,18.6,78.2,19.2,78.8,19.4z"/>
<path class="st0" d="M84.4,23.5l6-6.8c0.4-0.5,0.4-1.2-0.1-1.7c-0.5-0.4-1.2-0.4-1.7,0.1l-6,6.8c-0.4,0.5-0.4,1.2,0.1,1.7
	C83.2,24,84,23.9,84.4,23.5z"/>
<path class="st0" d="M96,22.7l-8.3,4.4c-0.6,0.3-0.8,1-0.5,1.6c0.3,0.6,1,0.8,1.6,0.5l8.3-4.4c0.6-0.3,0.8-1,0.5-1.6
	C97.3,22.6,96.5,22.4,96,22.7z"/>
</svg>
