<?xml version="1.0" encoding="utf-8"?>
<!-- Generator: Adobe Illustrator 28.3.0, SVG Export Plug-In . SVG Version: 6.00 Build 0)  -->
<svg version="1.1" id="Layer_1" xmlns="http://www.w3.org/2000/svg" xmlns:xlink="http://www.w3.org/1999/xlink" x="0px" y="0px"
	 viewBox="0 0 98 95" style="enable-background:new 0 0 98 95;" xml:space="preserve">
<style type="text/css">
	.st0{fill:#27466F;}
</style>
<path class="st0" d="M0.2,33.4c0.1,0.4,0.3,0.8,0.7,0.9c0.3,0.4,0.8,1,1.9,1.8c1.5-0.1,3.4-0.1,5-0.1c0.5,1.3,1,2.3,1.8,3.9
	c-0.9,1.1-3.1,4.1-3.4,4.4c-0.3,0.5-0.3,1.1,0.2,1.5c1.7,2.3,4,4.5,5.3,5.4c0.4,0.2,0.7,0.3,1.2,0c0.5,0.2,1.1,0.4,1.7,0.5
	c1.6-1.5,3.3-3,4.7-4.2c1.1,0.8,2.2,1.3,3.2,1.7c0.1,2.2,0.4,4.4,0.9,6.6c0.2,0.7,1,1.1,1.7,0.7c2.6-0.2,5.2-0.6,7.7-1.2
	c0.4-0.1,0.8-0.4,0.9-1c0.4-1.9,0.5-3.8,0.6-5.7l1.3-0.5c-0.7,13.9-0.7,28.4-0.4,35c0.2,5.1,0.3,10.5,5.4,11.4
	c0.5,0.2,1,0.3,1.5,0.3h51c2.5,0,4.6-2.1,4.6-4.6v-51c0-2.5-2.1-4.6-4.6-4.6H47.8c0.3-0.7,0.5-1.4,0.8-2.1l5.8-0.7
	c0.6-0.1,1.2-0.7,0.9-1.5c-0.7-6.9-0.7-7.6-0.8-7.7c-0.2-0.4-0.6-0.7-1-0.7l-5.5-0.1l-3.2-4.8l4.9-5c0.6-0.6,0.4-1.6-0.4-1.8
	c-2-2.2-4.4-4.1-5.8-5.7c-0.5-0.5-1.3-0.4-1.7,0l-4.9,4.8c-0.5-0.1,1.7,0.5-4.6-1.4c-0.7-1.9-1.2-4-1.3-6.1c0.3-0.8-0.2-1.5-1-1.6
	L22,0c-0.5,0-0.9,0.3-1.1,0.7c-0.4,0.6-0.1,0.5-0.5,6.6c-1.7,1-2.7,1.7-4.4,2.7l-5-3.9C10.5,5,9.2,5.9,9.4,5.8
	C7.6,7.4,5.6,10,4.1,12.7c-0.2,0.3-0.1,0.7,0,1c0,0.2,0.1,0.4,0.2,0.5c0,0.4-0.2,2.7-0.2,3c1,0.8,1.3,1,4.1,3.5
	c0,0.1-0.9,1.9-1.4,2.8l-6,1c-1,0.2-1,1.3-0.9,1.2C0,29.5-0.1,30.8,0.2,33.4z M37.6,34.2l-0.9,1.6c-3,3.8-8.5,5.1-13.1,3.1
	c0,0,0,0,0,0c-4.5-1.9-7.4-7.1-6.7-12c0.3-2,1-3.5,2.1-5.1c5.6-7.9,16.4-5.1,19.2,2.3C39.6,27.8,39.4,30.3,37.6,34.2z M95.4,39.3v51
	c0,1.3-1.1,2.3-2.3,2.3h-51c-1.3,0-2.3-1.1-2.3-2.3v-51c0-1.3,1.1-2.3,2.3-2.3h51C94.4,36.9,95.4,38,95.4,39.3z M21.8,9.1
	c0.5-0.1,0.9-0.5,0.9-1l0.2-5.8l5.7,0.1c0.2,2.3,0.7,4.7,1.6,6.8c0.2,0.4,0.6,0.7,1,0.7c0,0,0,0,0,0c5.6,1.7,5.5,1.8,6.1,1.6
	c0.7-0.1,0.3-0.2,5.1-4.8c1.6,1.7,2.6,2.4,4.7,4.5l-4.4,4.5c-0.1,0-0.1,0-0.2,0.1c-0.5,0.3-0.7,1-0.3,1.6c4,5.9,3.7,6,4.4,6.2
	c0.2,0.3,0.5,0.4,0.9,0.5l4.9,0.1l0.5,5.6l-4.8,0.6c-0.1,0-0.1-0.1-0.1-0.1c-0.6-0.1-1.2,0.2-1.4,0.8c-0.3,1.2-0.8,2.4-1.3,3.6
	c-2.4,0.2-4.1-0.5-6,0.9l0.2-0.3c2.1-4.5,2.3-7.7,0.7-11.9c-3.4-8.9-16.2-12.2-23.2-2.8C10.6,29.5,17,42.1,28,42.1
	c3.3,0,6.4-1.2,8.8-3.3c-0.8,2.1-1,4.6-1.1,6.9l-2.8,1.1c-0.4,0.2-0.7,0.6-0.7,1c-0.2,0.7,0.2,1.7-0.5,5.5c-2.1,0.4-4.1,0.8-6.2,1
	c-0.4-1.7-0.6-3.4-0.6-5.1c0.4-0.7,0-1.5-0.7-1.7c-1.5-0.3-3.1-1.3-5-2.8c-0.5-0.4-1.4-0.4-1.7,0.4c-1.6,1.4-3.3,2.7-5,3.9
	c-1.4-1.2-2.7-2.4-3.8-3.9l3.3-4.2c0.3-0.4,0.3-0.9,0-1.3c-1.3-2.8-1.8-3.8-2.5-5.5c0-0.6-0.4-1-1-1.1l-6-0.7
	c-0.2-1.9-0.1-3.2-0.1-5.7l5-0.8c0.1,0,0.2,0.1,0.4,0.1c0.4,0,0.8-0.2,1-0.6c0.1-0.1,0.2-0.3,0.2-0.5c1-2,1.9-3.7,2.6-5.3
	c0.2-0.5,0.1-1-0.3-1.4l0,0c-0.5-0.5-2.9-2.8-4.7-4.8c1-1.8,2.3-3.5,3.7-4.9c5.3,4.1,5.3,4.4,6,4.4c0.3,0,0.7-0.1,0.9-0.4
	c0,0,0-0.1,0.1-0.1C18.8,11,20.2,10.1,21.8,9.1z"/>
<path class="st0" d="M81.5,69c0-0.6-0.5-1.1-1.1-1.1H75c-0.6,0-1.1,0.5-1.1,1.1v4.2H45.2c-0.6,0-1.1,0.5-1.1,1.1
	c0,0.6,0.5,1.1,1.1,1.1h28.6v3.4c0,0.6,0.5,1.1,1.1,1.1h5.4c0.6,0,1.1-0.5,1.1-1.1v-3.4h3.3c0.6,0,1.1-0.5,1.1-1.1
	c0-0.6-0.5-1.1-1.1-1.1h-3.3V69z"/>
<path class="st0" d="M44,52.9h3.4v3.8c0,0.6,0.5,1.1,1.1,1.1h5.4c0.6,0,1.1-0.5,1.1-1.1v-3.8h28.5c0.6,0,1.1-0.5,1.1-1.1
	s-0.5-1.1-1.1-1.1H55v-3.8c0-0.6-0.5-1.1-1.1-1.1h-5.4c-0.6,0-1.1,0.5-1.1,1.1v3.8H44c-0.6,0-1.1,0.5-1.1,1.1S43.4,52.9,44,52.9z"/>
<path class="st0" d="M62.9,10.6c-0.6,0-1.2,0.4-1.2,1c-0.3,3-1.1,6-2.4,8.7c-0.3,0.6,0,1.2,0.5,1.5c0.2,0.1,0.3,0.1,0.5,0.1
	c0.4,0,0.8-0.2,1-0.6c1.4-3,2.3-6.2,2.6-9.5C64,11.2,63.6,10.6,62.9,10.6z"/>
<path class="st0" d="M64.9,25.2c0.3,0,0.6-0.1,0.8-0.4l5.8-6.2c0.4-0.5,0.4-1.2-0.1-1.6c-0.5-0.4-1.2-0.4-1.6,0.1l-5.8,6.2
	c-0.4,0.5-0.4,1.2,0.1,1.6C64.4,25.1,64.6,25.2,64.9,25.2z"/>
<path class="st0" d="M68.2,31c0.1,0,0.3,0,0.4-0.1l5.8-2.5c0.6-0.2,0.8-0.9,0.6-1.5c-0.2-0.6-0.9-0.8-1.5-0.6l-5.8,2.5
	c-0.6,0.2-0.8,0.9-0.6,1.5C67.4,30.8,67.8,31,68.2,31z"/>
</svg>
