<?xml version="1.0" encoding="utf-8"?>
<!-- Generator: Adobe Illustrator 28.3.0, SVG Export Plug-In . SVG Version: 6.00 Build 0)  -->
<svg version="1.1" id="Layer_1" xmlns="http://www.w3.org/2000/svg" xmlns:xlink="http://www.w3.org/1999/xlink" x="0px" y="0px"
	 viewBox="0 0 98 97" style="enable-background:new 0 0 98 97;" xml:space="preserve">
<style type="text/css">
	.st0{fill:#27466F;}
</style>
<path class="st0" d="M27.1,29.9h28.1c0.6,0,1.1-0.5,1.1-1.1s-0.5-1.1-1.1-1.1H27.1c-0.6,0-1.1,0.5-1.1,1.1S26.5,29.9,27.1,29.9z"/>
<path class="st0" d="M27.1,36.2h12.6c0.6,0,1.1-0.5,1.1-1.1s-0.5-1.1-1.1-1.1H27.1c-0.6,0-1.1,0.5-1.1,1.1S26.5,36.2,27.1,36.2z"/>
<path class="st0" d="M12,27.4c-2.2,1.6-3.5,4.7-1.4,7.8c2.7,3.8,9.6,3.3,10.5-2.4c0.2-1.6-0.1-3.2-1-4.3
	C17.9,25.5,14.3,25.7,12,27.4z M18.9,32.4C18.3,36,14,36,12.5,33.9c-1.4-2-0.4-3.7,0.8-4.6c1.5-1.1,3.6-1.1,4.9,0.6
	C18.8,30.5,19,31.4,18.9,32.4z"/>
<path class="st0" d="M27.1,46.9h28.1c0.6,0,1.1-0.5,1.1-1.1s-0.5-1.1-1.1-1.1H27.1c-0.6,0-1.1,0.5-1.1,1.1S26.5,46.9,27.1,46.9z"/>
<path class="st0" d="M27.1,53.3h12.6c0.6,0,1.1-0.5,1.1-1.1S40.4,51,39.7,51H27.1c-0.6,0-1.1,0.5-1.1,1.1S26.5,53.3,27.1,53.3z"/>
<path class="st0" d="M10.7,52.3c2.7,3.8,9.6,3.2,10.5-2.4c0.2-1.6-0.1-3.2-1-4.3C15.7,39.7,6.4,46.1,10.7,52.3z M17.5,51.8
	c-1.5,1.1-3.9,0.6-5-0.9c-2.6-3.7,3.1-7.5,5.7-4.1C19.4,48.3,19,50.8,17.5,51.8z"/>
<path class="st0" d="M27.1,64h28.1c0.6,0,1.1-0.5,1.1-1.1c0-0.6-0.5-1.1-1.1-1.1H27.1c-0.6,0-1.1,0.5-1.1,1.1
	C25.9,63.5,26.5,64,27.1,64z"/>
<path class="st0" d="M39.7,68.1H27.1c-0.6,0-1.1,0.5-1.1,1.1s0.5,1.1,1.1,1.1h12.6c0.6,0,1.1-0.5,1.1-1.1S40.4,68.1,39.7,68.1z"/>
<path class="st0" d="M10.7,69.4c1.1,1.6,3,2.4,4.9,2.4c5.1,0,7.1-5.8,4.5-9.2C15.7,56.8,6.4,63.2,10.7,69.4z M17.5,68.9
	c-1.5,1.1-3.9,0.6-5-0.9c-2.6-3.7,3.1-7.5,5.7-4.1C19.4,65.4,19,67.9,17.5,68.9z"/>
<path class="st0" d="M95.7,56.2c-0.7-0.7-1.3-1.5-1.8-2c-0.6-0.7-1.6-0.7-2.3-0.1c-0.2,0.1-20.1,16.7-20.3,16.9
	c0.1-50.4,0.4-47.4-0.1-48.2c0,0,0,0,0,0c-1-7.5-7-14.6-14-16.5c-0.3-0.1-0.6,0-0.8,0.1c-2.1-0.7-3.3-0.1-51.2-0.8
	C5,5.5,4.8,5.6,4.6,5.7c0-0.1,0-0.1,0-0.2C3.1,6.7,1.8,7.7,0.5,9.3c-0.2,0.3-0.4,0.7-0.4,1C0,38.9-0.2,68.1,0.5,96
	c0,0.5,0.4,0.9,0.9,0.9l66.2-0.3c0.9,0,1.7-0.5,2.1-1.3c0.7-1.3,1.2-2.7,1.4-3.3c0,0,0,0,0,0c0.1-0.4,0-2.7,0.1-7.4
	c8.3-7.5,16.8-15,25.4-22.1c0.9-0.7,0.9-1.6,0.9-2.4c0.1-0.2,0.2-0.5,0.2-0.8C97.8,58.1,96.8,57.6,95.7,56.2z M92.6,56.2
	c0.1,0.1,2.6,3,2.7,3c-12,9.8-20.1,16.9-29.7,26.2c-5.4-5-7.2-6.1-12.4-11.8c1.4-1.3,2.5-2.4,3.9-3.7c7,7.3,7.5,8.8,8.6,8.9
	c0.6,0,0.6,0,3.7-3.1C72.4,72.8,90.1,58.4,92.6,56.2z M68.7,21.9h-8.2c-0.8,0-1.5,0.2-1.7-0.1c-0.1-0.1-0.1-0.2,0-0.5
	c0-0.2,0-0.4,0-0.5c-0.2-8.4,0.3-9.6-0.1-11.6C63.5,11.4,67.6,16.5,68.7,21.9z M68.9,90.7H6.3V7.8c46.5,0.6,43.8,0.1,48.9,0.6
	c2,0.2,1,2.6,1.3,12.4c0,0.5-0.2,1.4,0.4,2.3c1.1,1.6,2.8,1.1,3.6,1.1h8.7L69,72.9c-0.5,0.5-1.2,1.2-2.1,2c-5.1-5.4-5.8-7.3-8.3-7.3
	c-0.6,0-1.2-0.1-1.8-0.2c0,0,0.1,0.1,0.1,0.1c-1.1,0.1-0.9,0.4-5.6,4.7c-0.8,0.7-0.8,1.9-0.1,2.7c5.7,6.4,7.6,7.2,13.6,12.9
	c0.2,0.2,0.5,0.3,0.8,0.3c0.1,0,0.1,0,0.1,0c0.8,0.2,1.7,0,2.3-0.5c0.3-0.3,0.6-0.6,0.9-0.8L68.9,90.7z"/>
<path class="st0" d="M72.8,0.1c-0.6-0.3-1.3,0-1.5,0.6l-2.4,5.1c-0.3,0.6,0,1.3,0.5,1.5c0.6,0.3,1.3,0,1.5-0.5l2.4-5.1
	C73.6,1.1,73.3,0.4,72.8,0.1z"/>
<path class="st0" d="M74.8,11l5.8-4.5c0.5-0.4,0.6-1.1,0.2-1.6c-0.4-0.5-1.1-0.6-1.6-0.2l-5.8,4.5c-0.5,0.4-0.6,1.1-0.2,1.6
	C73.6,11.3,74.3,11.4,74.8,11z"/>
<path class="st0" d="M76.7,14.2c-0.6-0.1-1.2,0.3-1.3,1c-0.1,0.6,0.3,1.2,1,1.3l7.7,1.1c0.6,0.1,1.2-0.3,1.3-1
	c0.1-0.6-0.3-1.2-1-1.3L76.7,14.2z"/>
</svg>
