<?xml version="1.0" encoding="utf-8"?>
<!-- Generator: Adobe Illustrator 28.3.0, SVG Export Plug-In . SVG Version: 6.00 Build 0)  -->
<svg version="1.1" id="Layer_1" xmlns="http://www.w3.org/2000/svg" xmlns:xlink="http://www.w3.org/1999/xlink" x="0px" y="0px"
	 viewBox="0 0 98 81" style="enable-background:new 0 0 98 81;" xml:space="preserve">
<style type="text/css">
	.st0{fill:#27466F;}
	.st1{fill:#221F1A;}
</style>
<path class="st0" d="M95.5,57.5l-1-19.5l-22,3.5l2,20.5L95.5,57.5z"/>
<path class="st1" d="M68.2,31.4h-2.8c-2.1-4.1-5.6-7.5-9.6-9.7c2.7,0,2.2,0.1,5.7,0c0.3,0.5,0.8,0.8,1.4,0.8h2.7
	c0.9,0,1.6-0.7,1.6-1.6V19c0-0.9-0.7-1.6-1.6-1.6h-2.7c-0.9,0-1.6,0.7-1.6,1.6v0.5c-3.9,0.1-7.9,0-11.9-0.2v-2
	c0-0.6-0.5-1.1-1.1-1.1h-5.6c-0.6,0-1.1,0.5-1.1,1.1v1.8c-4.2-0.1-8.4-0.2-12.5-0.2v-0.3c0-0.9-0.7-1.6-1.6-1.6h-2.7
	c-0.9,0-1.6,0.7-1.6,1.6v1.9c0,0.9,0.7,1.6,1.6,1.6h2.7c0.7,0,1.3-0.4,1.5-1c2.5,0,5.1,0,7.7,0c-5,2.3-9.2,6.5-11.4,11.6h-2.6
	c-0.6,0-1.1,0.5-1.1,1.1v4.8c0,0.6,0.5,1.1,1.1,1.1h5.6c0.6,0,1.1-0.5,1.1-1.1v-4.8c0-0.6-0.5-1.1-1.1-1.1h-0.4
	c2.6-5.5,7.9-9.6,13.8-10.9v0.2c0,0.6,0.5,1.1,1.1,1.1h5.6c0.6,0,1.1-0.5,1.1-1.1v-0.3c5.6,1.1,10.7,4.7,13.6,9.6h-0.2
	c-0.6,0-1.1,0.5-1.1,1.1v4.8c0,0.6,0.5,1.1,1.1,1.1h5.6c0.6,0,1.1-0.5,1.1-1.1v-4.8C69.3,31.9,68.8,31.4,68.2,31.4z"/>
<path class="st1" d="M97.7,58.4c0.1-1-0.4-6.9-1.1-21.1c0-0.1,0-0.3,0-0.4c-0.1-0.6-0.7-1.1-1.3-1c-2.3,0.3-4.7,0.7-7.1,1
	c0-7.4,0-28.9,0.3-34.1c0-0.8-0.5-1.2-1.1-1.2c-0.1,0-0.2,0-0.2,0.1C58.9,0.9,32.8,0.8,4.5,0C3.9,0,4.2-0.3,0,6.3
	c1.6,16.7,3,33.5,3.3,49.6c1.5,1,3.1,3.1,4.8,3c1.1-0.1,5-0.7,32.1-3.2c0,1,0.1,1.6,0.1,6.6c-3.3,0.8-8.1,1.4-11.4,2.2
	c-0.3,0.1-0.7,0.4-0.8,0.8c0,0.2-0.5,2.6-0.1,4.7c2.6,2.9,6.5,7.6,9.1,10.5c10.7-2.2,20.6-3.8,31.1-6c0.2-1.2,0.3-2.2,0.6-3.4
	c0.4-0.5,0.3-1.2-0.2-1.6c-3.8-3.2-7.1-6.1-11.1-9.2c-0.2-0.2-1.1-0.4-1.3-0.3c-0.2,0-3.9,0.6-4.1,0.6l0-6.1
	c6.2-0.6,12.3-1.1,17.9-1.7c0.3,3.5,0.6,6.9,0.8,9.7c0.8,0.2,1.2,0.4,1.7,0.7c0.2,0.3,0.5,0.5,0.9,0.5c0,0,0,0,0,0
	c0.8,0.2,14.8-2.7,23.3-4.1C97.4,59.5,97.7,59,97.7,58.4z M49.8,65.1c0,0.6,0.5,1.1,1.1,1.1h0c0.6,0,1.1-0.5,1.1-1.1l0-2.3
	c0.5,0.1,1.9-0.2,4.2-0.6c3.2,2.4,5.9,4.8,9,7.4c-8.9,1.5-18.1,3.3-26.9,4.7c-2.2-2.5-4.7-5.4-7.1-8.2c2.9-0.6,6.2-1.1,9-1.7
	c0,0.5,0,1,0,1.5c0,0.6,0.5,1.1,1.1,1.2c0,0,0,0,0,0c0.6,0,1.1-0.5,1.1-1.1c0.1-2.7,0.1-9.7-0.1-10.6c2.5-0.2,4.9-0.5,7.4-0.7
	L49.8,65.1z M9.1,56.4C7.7,38.3,7.3,24.5,5.7,2.3c27.7,0.8,52.8,0.8,80.5,1.6c-0.3,11.2-0.2,21.6-0.2,33.3c-0.1,0-3.3,0.5-3.5,0.5
	c0-1,0.1-29.6-0.3-30.4c-0.2-0.4-0.6-0.6-1-0.6c-8.6-0.1-70.5-0.9-70.7-0.8c-0.6,0-1.1,0.6-1,1.2c1,14.7,2.5,29.9,2.9,44
	c0,0.8,0.9,1.4,1.7,0.9c19.4-1.4,38.4-2.7,55.3-4.3c0,0,0,0,0,0c0.1,0.9,0.2,1.9,0.3,2.8c0,0,0,0,0,0C49.6,52.5,28.9,54.3,9.1,56.4z
	 M71.4,39.3c-0.5,0.1-0.8,0.4-0.9,0.8c-0.5,0.5-0.9,1-1.5,1.4c0.1,1.3,0.2,2.6,0.3,4c0,0,0,0,0,0c-16.8,1.5-34.7,2.8-54.6,4.2
	c-0.5-13.4-1.8-27.3-2.8-41.5C12,8.2,68.8,8.8,80.1,9c0.2,10.1,0.1,18.7,0.1,29.1C77.2,38.5,74.3,38.9,71.4,39.3z M74.4,61.4
	c-0.1-1.7-1.6-18.5-1.7-20c7.1-1,14.2-2.1,21.6-3.1c0.2,5.9,0.8,13,1.1,19.2C88.1,58.8,81.4,60.2,74.4,61.4z"/>
<path class="st1" d="M90.7,44.7c-0.2-0.4-0.9-0.9-1.5-0.8c-3.9,0.9-8,1.6-12,2.1c-0.5,0.1-1.1,0.6-1.1,1.3l0,1.5
	c0,0.6,0.5,1.1,1.1,1.1h0c0.6,0,1.1-0.5,1.1-1.2l0-0.6c1.5-0.2,2.9-0.4,4.4-0.7c0.3,2.3,0.6,4.7,0.8,7.1c-0.5,0.2-0.8,0.7-0.7,1.2
	c0.1,0.6,0.7,1,1.3,0.9l1.6-0.3c0.6-0.1,1-0.7,0.9-1.3c-0.1-0.5-0.5-0.8-0.9-0.9c-0.2-2.4-0.5-4.8-0.8-7.1c1.3-0.2,2.6-0.5,3.9-0.8
	l0.2,0.5c0.2,0.6,0.9,0.8,1.5,0.6c0.6-0.2,0.8-0.9,0.6-1.5L90.7,44.7z"/>
</svg>
