<?xml version="1.0" encoding="utf-8"?>
<!-- Generator: Adobe Illustrator 28.3.0, SVG Export Plug-In . SVG Version: 6.00 Build 0)  -->
<svg version="1.1" id="Layer_1" xmlns="http://www.w3.org/2000/svg" xmlns:xlink="http://www.w3.org/1999/xlink" x="0px" y="0px"
	 viewBox="0 0 98 95" style="enable-background:new 0 0 98 95;" xml:space="preserve">
<style type="text/css">
	.st0{fill:#27466F;}
	.st1{fill:#221F1A;}
</style>
<path class="st0" d="M56,25.5l1,11l7-5l7,2.5l10.5-0.5l9-4.5l4.5-5.5v-7l-3.5-7l-6-5L80,2L69.5,1l-10,3l-4,3L52,12v6.5L56,25.5z"/>
<path class="st1" d="M36.7,36.7h5.9l0.2,8.6c0,0.6,0.5,1.1,1.1,1.1l0,0c0.6,0,1.1-0.5,1.1-1.2l-0.2-8.6h6c1.5,0,1.5-2.3,0-2.3H36.7
	c-0.6,0-1.1,0.5-1.1,1.1C35.6,36.1,36.1,36.7,36.7,36.7z"/>
<path class="st1" d="M12,42.2h24.4c0.6,0,1.1-0.5,1.1-1.1S37,40,36.4,40H12c-0.6,0-1.1,0.5-1.1,1.1S11.4,42.2,12,42.2z"/>
<path class="st1" d="M53.3,57c0-0.6-0.5-1.1-1.1-1.1h-40c-0.6,0-1.1,0.5-1.1,1.1s0.5,1.1,1.1,1.1h40C52.8,58.2,53.3,57.7,53.3,57z"
	/>
<path class="st1" d="M48.4,71.6c0-0.6-0.5-1.1-1.1-1.1H20.1c-0.6,0-1.1,0.5-1.1,1.1s0.5,1.1,1.1,1.1h27.1
	C47.9,72.7,48.4,72.2,48.4,71.6z"/>
<path class="st1" d="M36.9,81.2h-8.5c-0.6,0-1.1,0.5-1.1,1.1s0.5,1.1,1.1,1.1h8.5c0.6,0,1.1-0.5,1.1-1.1S37.5,81.2,36.9,81.2z"/>
<path class="st1" d="M88.2,55.9L61.7,70c-0.3-12.3-0.3-21.7,0-33.6c0.9-0.8,2.2-2,3.1-3.1c5.6,2.3,11.1,3.2,16.7,2
	c16.6-3.4,20.1-20.9,6.9-30.3c-9.6-6.8-26.9-7-34.3,1.8c-3.9,4.6-4.5,10.9-1.4,16c-2,0-4.4,0.2-8.1,0.5c-17.4,1.2-23.2,0.6-41.4,0.5
	l0,0c-0.5,0-0.9,0.3-1.1,0.9c-0.7,0.8-1.4,1.6-2.1,2.5c0.8,20.5,1,42.6,1.8,63c0.1,1.6,0.6,2.7,1.9,3.3c0.2,0.2,0.5,0.3,0.7,0.4
	c10.7,0.8,23.7,0.2,34.5-0.6c13.1-0.9,11.9-0.6,22-0.1c0.6,0,1.2-0.5,1.2-1.1c0-2.3,0-4.7-0.1-7l32.8-17.4c1.3-0.7,2.2-1.9,2.7-3.5
	c0.5-1.9,0.2-3.9-0.7-5.4C95.1,55.9,91.3,54.2,88.2,55.9z M59.2,83.9c0-1.4-0.2-2.2-1.2-3.2C68,75.5,79.1,70,88.5,64.2l1.3,2.2
	c0,0.4,0,0.7-0.1,0.9c-0.1,0.1-0.1,0.3-0.2,0.4L59.2,83.9z M51.9,85.3c-0.6-1.2-1.2-2.6-2-3.6c1.7-2.8,1.9-3.1,2-3.4
	c0.5,0.1,1.5,0.6,2,1c1.1,1,0.5,2,1.6,2.4c0.5,0.1,1.2,0.9,1.3,1.4c0.1,0.6,0.1,1.5-0.1,1.9C55.3,85.1,53.6,85.2,51.9,85.3z
	 M85.3,60c0.4,0.2,0.9,0.4,1.3,0.7l0.8,1.5c-8.9,5.6-19.7,10.9-30.9,16.6c-0.6-1.1-1.4-1.7-2.5-2.3L85.3,60z M55.8,8.3
	C61.2,1.9,72.5,1,80.7,3.7l0,0c11.2,3.6,15.2,13,12.8,19.1c-2.8,7-14.3,12-27,7.7l-0.4-0.1c-3.2-1.2-3.4,0-8.4,4.4
	c-0.1-2.7-0.3-5.8-0.7-9.5c-0.1-0.8-0.8-0.8-2.4-3.4C52.1,17.5,52.5,12.2,55.8,8.3z M59.8,90.8c-21-1.1-33.3,2.3-54.2,0.8
	c-0.5-21.5-0.7-44-1.3-65.5c17.1,0.1,23.2,0.7,40.4-0.6c3.9-0.3,7-0.5,9.6-0.5c0.2,0.2,0.4,0.5,0.6,0.7c1.2,10.4,0.1,11,1.4,11.8
	c0.5,0.3,1,0.3,1.5,0c0.7,0.1,1.1,0.2,1.6,0.1c-0.3,11.6-0.2,22.9,0.1,33.4c-8.8,4.8-8.6,4.4-8.9,4.9c-2.2,3.8-4.2,6.7-5.6,10.1
	c-0.3,0.7,0.2,1.6,1.1,1.6c3.1-0.2,8.2,0,12-0.7c0.3-0.1,0.4-0.2,1.7-0.8C59.8,87.7,59.8,89.3,59.8,90.8z"/>
<path class="st1" d="M85.5,21.4c1.9-0.2,3-2.3,1.8-3.9c-0.2-1-2.3-1.9-3.8-0.9c-1.1,0.7-1.5,2.1-1,3.2C83,20.9,84.3,21.5,85.5,21.4z
	"/>
<path class="st1" d="M77.2,17.7c0.1-0.7,0-1.4-0.5-1.9c-0.2-1-2.3-1.9-3.8-0.9c-1.1,0.7-1.5,2.1-1,3.2
	C73.1,20.4,76.7,20.1,77.2,17.7z"/>
<path class="st1" d="M64.1,17.8c1.9-0.2,3-2.3,1.8-3.9c0-0.3-0.2-0.5-0.4-0.7c-2.3-1.8-5.5,0.5-4.3,3C61.6,17.2,62.9,18,64.1,17.8z"
	/>
</svg>
