<?xml version="1.0" encoding="utf-8"?>
<!-- Generator: Adobe Illustrator 28.3.0, SVG Export Plug-In . SVG Version: 6.00 Build 0)  -->
<svg version="1.1" id="Layer_1" xmlns="http://www.w3.org/2000/svg" xmlns:xlink="http://www.w3.org/1999/xlink" x="0px" y="0px"
	 viewBox="0 0 69 70" style="enable-background:new 0 0 69 70;" xml:space="preserve">
<style type="text/css">
	.st0{fill:#27466F;}
</style>
<path class="st0" d="M60,37c-0.2-1.3-0.9-2.3-2.1-2.8c-1.3-0.5-2.8-0.3-3.9,0.5c-0.3,0.3-0.6,0.6-0.8,0.9L43,32.1
	c0.4-1.1,0.3-2.2-0.3-3.1l8-8c0.8,1,2.1,1.6,3.4,1.4c3.5-0.5,4.4-5.5,1.1-6.9c-2.5-1.1-5.6,0.8-5.2,3.8l-8.5,8.5
	c-2.5-1.4-6,0.4-5.5,3.6c0.4,2.7,3.8,4.3,6.1,2.1c16.2,5.6,8.3,2.9,10.6,3.6c-0.1,2.3,1.8,3.9,3.7,3.9c0.1,0,0.3,0,0.4,0
	C58.7,40.8,60.2,38.9,60,37z"/>
<path class="st0" d="M12,45.3c-2.7,2.8-3.2,7.5-1.1,10.8c2.1,3.3,6.5,4.9,10.2,3.8c3.7-1.2,6.4-5,6.3-8.9
	C27.2,43.1,17.8,39.2,12,45.3z M20.6,58.3c-3,0.9-6.6-0.4-8.3-3.1c-1.7-2.7-1.3-6.5,0.9-8.8c4.6-4.8,12.3-2,12.5,4.7v0
	C25.9,54.3,23.7,57.4,20.6,58.3z"/>
<path class="st0" d="M10.6,6.3c0.3,0.9,1.3,1.4,2.2,1.2c0.9-0.2,1.6-1,1.5-1.9c0-0.6-0.4-1.2-0.9-1.5c-0.3-0.2-0.7-0.2-1.1-0.1
	c-0.3-0.2-0.7-0.3-1-0.1C10.6,4.4,10.2,5.5,10.6,6.3z"/>
<path class="st0" d="M20.3,7.5c1.1,0,1.9-0.9,1.9-2c0-0.6-0.4-1.2-0.9-1.5C21,3.9,20.6,3.8,20.3,4c-0.3-0.2-0.7-0.3-1-0.1
	c-0.8,0.5-1.1,1.5-0.8,2.3C18.8,7,19.5,7.5,20.3,7.5z"/>
<path class="st0" d="M28.8,7.3c0.9-0.2,1.6-1,1.6-1.9c0-1.1-1-1.9-2-1.5c-0.9-0.7-2.3,0.9-1.7,2.3C27,6.9,27.9,7.5,28.8,7.3z"/>
<path class="st0" d="M65.8,0.3L65.8,0.3c-0.1,0-0.3-0.1-0.5-0.1c0,0-0.1,0-0.1,0c0,0-0.1,0-0.1,0C44.1,0.2,6.2-0.1,5.4,0
	c-0.6-0.1-1,0.3-1,0.8C4.5,15,4.7,29,4.7,43.5l-1.9-0.7c-0.5-0.2-1.2,0.2-1.1,0.8c-0.3,0.8-0.6,1.6-0.8,2.4c-1.4,4.3-2.1,3,3.7,5.3
	l0.4,3.1c-0.9,1-2,1.8-3.2,2.4c-0.6,0.1-0.9,0.7-0.7,1.1l2.1,4.7c0.1,0.3,0.4,0.5,0.8,0.5c0,0,0,0,0,0c0.4,0.1,0.1,0.1,4-1.5
	c1.4,1,1.3,0.9,2.7,1.8l-0.9,4c0,0-0.1,0.1-0.1,0.1c-0.2,0.4,0,0.8,0.4,1.1c0,0,0,0,0,0c0.1,0.1,0.1,0.1,0.3,0.1
	c1.7,0.7,3.4,1.1,5.2,1.2c0,0,0,0,0,0c0.2,0,0.4-0.1,0.6-0.3c0.2-0.1,0.3-0.3,0.3-0.4c0.5-0.2,1.1-0.4,1.6-0.7
	c0.3-1.4,0.5-2.1,0.9-3.3c0.1,0,1.2,0,2,0.1l2.2,3.3c0.3,0.4,0.8,0.5,1.1,0.2c0,0,0,0,0,0c3.6-1.7,5.1-2.1,4.8-3.1
	c0.1-0.3,0.3-0.7,0.5-1.5c-0.5-0.8-1-1.9-1.4-2.9c0.6-0.7,1-1.1,1.8-2.1c3.6,0.8,3.4,0.8,3.6,0.8c0.4,0,0.7-0.2,0.8-0.6
	c1-1.8,1.6-3.9,1.7-4.6c0.1-0.4-0.1-0.7-0.4-0.9c0-0.3-0.1-0.7-0.2-1.1c-1.3-0.5-2.6-1.2-3.7-1.6c0-0.2,0-0.4,0.1-0.6
	c13.1-0.1,25.6-0.2,32.9-0.2c0,0,0,0,0.1,0c0,0,0,0.1,0,0.1c0.7,0,0.6-0.1,2.2-0.8c0.5-0.2,0.9-0.7,0.9-1.3c0.1-14.1,0.3-30.9,0-45
	C68.3,2.4,66.8,1.1,65.8,0.3z M64.5,1.9v7.6c-0.6-0.3,0.6,0.1-58.3,0.1c0-2.6,0-5.3,0-7.9C25.4,1.7,45.2,1.9,64.5,1.9z M24.4,67.1
	l-1.8-2.7c0-0.4-0.3-0.7-0.7-0.7c-0.1,0-4.2-0.1-4.2-0.1c-0.9,0-0.7,0.6-2.3,4.7c-1.3-0.1-2.5-0.4-3.7-0.8l1-4.2
	c0.1-0.4-0.2-0.9-0.7-1c-1.3-0.9-1.9-1.3-3-2C8.5,59.8,8.2,60,8.1,60c-0.3,0.1,0.3-0.1-3.5,1.4l-1.4-3.3c1.3-0.7,2.5-1.7,3.5-2.8
	c0.2-0.2,0.3-0.6,0.1-0.9c-0.6-3.7-0.4-3.7-0.7-4.1c-0.3-0.4-0.4-0.3-4.2-1.8c0.6-1.5,0.8-2.4,1.3-3.9l1.7,0.6
	c0.2,0.3,0.5,0.4,0.9,0.3L6.9,46c0.4,0.4,1,0.2,1.2-0.2c2.3-4,2.5-3.8,2.5-4.4c0.3-0.6-0.1-0.8-1.2-3.6l3-1.8l1.6,2.6
	c0,0.5,0.5,0.8,1,0.7c2.5-0.5,4.2,0,4.5,0c0.4,0,0.8-0.4,0.9-0.7c0.3-1.2,0.8-2.4,1.4-3.6c1.3,0.2,2.7,0.5,4,1
	c0.1,3.2-0.8,3.8-0.3,4.5c0.1,0.5,0.2,0.3,2.5,2.7c0.7,0.7,1.3-0.2,4.2-1c0.8,1.1,1.5,2.2,2.2,3.3c-0.9,0.7-1.8,1.2-2.8,1.7
	c-0.6,0-0.9,0.5-0.8,1c0.2,1,0.1,2.2-0.3,3.7c-0.1,0.4,0.1,0.9,0.6,1c0.1,0,0.1,0,0.2,0c1.2,0.5,2.4,1.2,3.6,1.9
	c-0.3,1.1-0.7,2.2-1.2,3.2l-3.3-0.8c-0.8-0.2-0.9,0.8-3.4,3.4c-0.4,0.2-0.5,0.6-0.4,1l1.2,3.7C26.5,66.2,25.8,66.5,24.4,67.1z
	 M32.3,49.1c0-0.1,0-0.1,0-0.2c1.3-0.7,2.5-1.4,3.6-2.3c0.4-0.3,0.4-0.9,0-1.3C35,43.8,34,42.4,33,41c-0.2-0.3-0.5-0.4-0.9-0.3
	c-1.2,0.3-2.3,0.7-3.4,1.2l-1.8-1.8c0.3-1.4,0.5-2.8,0.4-4.2c0,0,0,0,0,0c0.2-0.4,0-0.9-0.5-1.1c-1.5-0.6-4.5-1.4-5.5-1.3
	c-0.3,0-0.7,0.1-0.8,0.4c-0.6,1.2-1.2,2.5-1.6,3.8c-1.2-0.2-2.4-0.2-3.6,0l-2-3.2c-0.2-0.4-0.8-0.6-1.3-0.2C9.1,36.2,7.6,37,7.7,37
	c-0.2,0.2-0.3,0.6-0.2,0.9L9,41.3l-1.9,3.1l-0.7-0.3c0-11.1-0.2-21.7-0.2-32.9c8.1,0,58.1-0.1,58.3-0.2v37.9
	C57.1,48.9,45.6,49,32.3,49.1z"/>
<path class="st0" d="M31.1,16.4H14.5c-0.5,0-0.8,0.4-0.8,0.8c0,0.5,0.4,0.8,0.8,0.8h16.6c0.5,0,0.8-0.4,0.8-0.8
	C32,16.7,31.6,16.4,31.1,16.4z"/>
<path class="st0" d="M31.1,26H10.9c-0.5,0-0.8,0.4-0.8,0.8c0,0.5,0.4,0.8,0.8,0.8h20.2C32.2,27.6,32.2,26,31.1,26z"/>
<path class="st0" d="M21.7,48.5L17.2,53l-1.8-1.8c-0.3-0.3-0.8-0.3-1.2,0c-0.3,0.3-0.3,0.8,0,1.2l2.4,2.4c0.3,0.3,0.8,0.3,1.2,0
	l5.1-5.1c0.3-0.3,0.3-0.8,0-1.2S22,48.2,21.7,48.5z"/>
</svg>
