<?xml version="1.0" encoding="utf-8"?>
<!-- Generator: Adobe Illustrator 28.3.0, SVG Export Plug-In . SVG Version: 6.00 Build 0)  -->
<svg version="1.1" id="Layer_1" xmlns="http://www.w3.org/2000/svg" xmlns:xlink="http://www.w3.org/1999/xlink" x="0px" y="0px"
	 viewBox="0 0 98 69" style="enable-background:new 0 0 98 69;" xml:space="preserve">
<style type="text/css">
	.st0{fill:#27466F;}
	.st1{fill:#221F1A;}
</style>
<path class="st0" d="M84.6,41.2l4.4,4l6.2-3.1c1.4-0.7,2-2.3,1.4-3.8l-9.4-23.5c-0.6-1.6-2.4-2.3-4-1.6l-0.5,0.2l-6.9,2.9
	c-1.3,0.6-2.1,2-1.8,3.4l0.4,2c0,0.2,0.1,0.5,0.2,0.7l5.1,10.7l4.1,7.3C84.1,40.8,84.3,41,84.6,41.2z"/>
<path class="st1" d="M92.7,40.4c-1.5,0.4-4,1.9-5.6,2.9c-5.2-7-10.5-17-12.1-25.6c2.5-0.7,7.9-3,10.3-4.1c2.4,5.6,3.9,10.3,5.5,13.5
	c0.3,0.5,0.9,0.7,1.5,0.5c0.5-0.3,0.7-0.9,0.5-1.5c-1.5-2.9-5-12.9-5.9-14.5c0,0,0,0,0,0c-0.4-0.9-1.5-0.9-2-0.2
	c-2.3,1.1-9.2,4-10.9,4.3c-0.8-0.3-1.5,0.4-1.4,1.2c0.1,0.6,0.2,1.3,0.4,1.9c-10.4,3-14.7-3.3-21.5-2.1c-1.3,0.2-2.7,0.7-4,1.2
	c-7.7-4.8-18.6,1.3-24.4-2c-1.8-1.1-3.7-2.1-5.6-3.1c0.2-0.8,0.3-1.4,0.2-1.7C17.5,10.2,6.3,5.3,6.1,5.3c0,0,0,0,0,0
	C5.5,5.2,4.9,5.6,4.8,6.2C4.3,10.2,1,19.5,0,23.5c-0.1,0.6,0.2,1.2,0.8,1.3C1.4,25,2,24.6,2.1,24c1-4,3.6-11.3,4.6-16.1
	c2.1,1,6.8,3.2,8.7,4.1c-0.9,4.8-3.4,17.2-6.5,26.4c-1-0.6-2.4-1.4-3.3-2c-1.1-0.6-2.2,0.7-1.3,1.7c0.1,0.5,0.2,1.1,0.3,1.6
	c1.4,1,3.3,2.2,4.9,2.9c0.3-0.2,0.6-0.9,0.7-1.3c1.4,0.9,2.8,2.1,4.2,3c-1.1,1.2-1,4.7,1.5,7.1c1.1,1,2.6,1.6,4.1,1.3
	c-0.6,4.2,3.2,7,6.8,6.1c-0.1,3.8,3.7,6.8,7.5,5.5c0.5,1.9,2.1,3.8,4,4.4c1.9,0.6,4.1,0.2,5.7-1c0.2-0.2,0.4-0.3,0.7-0.5
	c2.9,0.8,5.8,0.4,8.4-0.8c3.2,1.4,6.7-0.9,7.1-3.8c3.3,1.6,7-1,7.3-3.9c1.5,0.4,3.2,0.1,4.4-0.9c1.2-1,2.1-2.9,2-4.5
	c4.3-2.4,8.4-4.8,12.8-7.3c0,0,0,0,0.1,0c0.7,0.9,0.8,0.9,1.2,0.8c1.4-0.3,4.2-1.6,5.4-2.3c0.3-0.8,0.4-0.9,0.5-2.3
	C94.5,41.4,93.7,40.1,92.7,40.4z M50.1,63.4c0.2,0.2,0.5,0.4,0.8,0.7c-1.5,0.7-2.8,0.8-3.6,0.6c-1.1-0.3-2.7-1.3-3.4-2.3
	c0.3-1,0.8-1.8,1-3C47,60.9,48.5,62,50.1,63.4z M42.7,58.4c0,0.6-0.2,1.3-0.5,2.1c-0.7,1.7-0.6,2.2-0.7,2.9c0,0.6-0.1,1.3,0.2,2
	c-2.1,0.8-4.6-1.2-5.4-3.1c1.6-1.8,3-3.7,4.3-5.7c0,0,0,0,0,0C41.6,56.5,42.7,57.4,42.7,58.4z M39.2,54.9c-0.6,0.8-1.8,2.9-4.4,6
	c-0.1,0-0.2,0.1-0.3,0.1c-0.7,0.5-1.8,0.7-2.6,0.4c-0.9-0.3-1.6-1.1-1.8-1.9c-0.2-0.7-0.2-1.9-0.1-2.8c0.8-0.9,0.4-0.9,4.2-5.2
	l0.7-0.8c0,0,0.1-0.1,0.1-0.2c0.9-0.1,1.7,0,2.3,0.3c1.3,0.5,2.2,2.4,1.9,4C39.1,54.8,39.2,54.8,39.2,54.9z M28.1,55.5
	c-1.4,0.6-3.1,0.3-4.1-0.7c-1.1-1-1.6-2.8-1-4.2c2.7-2.4,4.8-5.6,7.6-4.2c1.4,0.7,2.2,2.3,2.2,2.9c0,0.1,0,0.2,0,0.3
	C31.6,50.9,28.9,53.9,28.1,55.5z M22.4,48.1c-0.4,0.5-0.9,0.9-1.3,1.2c-1.3,0.4-2.9-0.2-3.6-1.3c-0.7-1.2-0.2-3,0.9-3.8
	C21.3,43.9,23.1,46.6,22.4,48.1z M51.8,18.9c5.6-1,10.9,5.1,21.6,2.1c2,7.6,6.4,15.8,10.7,22c-4.4,1.5-7.9,3.4-12.1,6.6
	c-0.8-1.7-1.8-2.8-3.4-4.3C63.3,40,57,32.5,50.4,28.8c0.2,0,0.3,0,0.5,0c0.6,0,1.1-0.5,1.1-1.1c0-0.6-0.5-1.1-1.1-1.1
	c-2.1-0.1-5.3,1.3-6.9,2.9c-2.5,2.7-4,6.7-7.2,7.8c-0.9,0.3-2.2,0.3-2.6-0.4c-0.4-0.6-0.5-1.9-0.4-2.7c0.5-2.8,1.7-4.5,3.4-6.9
	c1.2-1.7,3.3-3.4,5.9-4.8C45.9,21.1,48.9,19.4,51.8,18.9z M22,17.8c6.2,3.6,16-1.5,23,1.3c-3.5,1.7-7.1,3.7-9.4,6.9
	c-1.8,2.5-3.2,4.5-3.8,7.7c-0.2,1.2-0.1,3.1,0.7,4.3c1.1,1.7,3.4,2,5.2,1.3c2.6-1,4.3-3.3,5.7-5.4c1.6-2.3,2.2-3.3,4.1-4.2
	c6.8,3,13.1,10.5,18.5,15.9c1.4,1.4,1.8,1.7,2.8,2.8c3.1,3.4,1.5,7-1.1,6.6c-1.9-0.3-3.5-2.1-5-3.5c-2.7-2.5-5.4-5.2-7.8-8
	c-0.4-0.5-1.1-0.5-1.5-0.1C53,43.9,53,44.6,53.3,45c2.4,2.9,5.2,5.6,8,8.2c1.1,1,2.3,2.3,3.7,3.2c-0.6,2.4-3.2,3.7-5.5,3
	c-1.7-0.6-2.4-1.6-9.7-8.9c-0.4-0.4-1.1-0.4-1.5,0c-0.4,0.4-0.4,1.1,0,1.5c6.8,6.9,7.6,7.9,9.2,8.8c-0.4,2-1.9,2.7-3,2.7
	c-1,0-1.9-0.8-2.9-1.6c-2.4-2.1-5.2-3.9-7.6-6c-0.1-0.1-0.3-0.2-0.4-0.2c-0.6-0.6-1.4-1-2.2-1.1c0.1-2.2-1.1-4.8-3.3-5.7
	c-0.9-0.4-2-0.5-3.3-0.4c-0.4-1.4-1.6-3-3.2-3.8c-2.8-1.4-5.1-0.1-7,1.5c-0.8-2.6-3.4-4.4-6.2-4.1c-0.1,0-0.1,0-0.2,0.1
	c-0.2,0-0.3,0-0.5,0.1c-2.4-1.8-3.8-2.6-6.4-4c2.5-7.8,4.6-17.4,5.8-23.1C18.7,16,20.4,16.9,22,17.8z"/>
<path class="st1" d="M9.9,15.7c1.1-0.4,1.3-1.7,0.5-2.5c-1-1-2.6-0.3-2.6,1c0,0.5,0.2,1,0.6,1.3C8.9,15.9,9.5,15.9,9.9,15.7z"/>
<path class="st1" d="M77,19.9c-0.8,2.1,1,4.7,3.4,4c1.5-0.4,2.3-1.7,2-3.2C81.9,17.7,78,17.4,77,19.9z M79.9,21.8
	c-0.3,0.1-0.4,0-0.6-0.1c-0.3-0.4-0.5-1.2,0.1-1.3c0.5-0.1,0.8,0.3,0.9,0.7C80.4,21.7,80,21.8,79.9,21.8z"/>
<path class="st1" d="M40.8,11.9c0.3,0.5,1,0.7,1.5,0.4c0.5-0.3,0.7-1,0.4-1.5l-3.6-6.1c-0.3-0.5-1-0.7-1.5-0.4
	c-0.5,0.3-0.7,1-0.4,1.5L40.8,11.9z"/>
<path class="st1" d="M47.3,11.8c0.5,0,1-0.4,1.1-0.9l1.5-9.7C50,0.7,49.6,0.1,49,0c-0.6-0.1-1.1,0.3-1.2,0.9l-1.5,9.7
	C46.1,11.2,46.7,11.8,47.3,11.8z"/>
<path class="st1" d="M55.6,10.7l3.1-4.6c0.3-0.5,0.2-1.2-0.3-1.5c-0.5-0.3-1.2-0.2-1.5,0.3l-3.1,4.6c-0.3,0.5-0.2,1.2,0.3,1.5
	C54.6,11.3,55.3,11.2,55.6,10.7z"/>
</svg>
