<?xml version="1.0" encoding="utf-8"?>
<!-- Generator: Adobe Illustrator 28.3.0, SVG Export Plug-In . SVG Version: 6.00 Build 0)  -->
<svg version="1.1" id="Layer_1" xmlns="http://www.w3.org/2000/svg" xmlns:xlink="http://www.w3.org/1999/xlink" x="0px" y="0px"
	 viewBox="0 0 98 93" style="enable-background:new 0 0 98 93;" xml:space="preserve">
<style type="text/css">
	.st0{fill:#27466F;}
	.st1{fill:#221F1A;}
</style>
<path class="st0" d="M51,54.5l8.5-1l-2-6L52,38l-1,3l-3.5-6L44,31.5l-5.5-4L36,29l-3.5-3.5L28,22l-4-2l-0.5,2L22,21l-4-2l-5-2H6.5
	l-5,2L1,22l5.5,6l9,9l4,0.5L26,38l-3.5,1.5V41l3.5,2.5l4.5,3l13,2l2.5,1L40,52l2.5,1L51,54.5z"/>
<path class="st1" d="M49.9,32.2c1.6,0.1,3.2,1.1,5,1.7c2.3,0.8,5.1,0.5,6.4-1.5c0.1-0.2,0.3-0.6,0.3-0.6c0.3-0.1,1.2,0.8,2.1,1.2
	c3.2,1.5,5.8-2.3,11.5-0.2c0.6,0.2,1.2-0.1,1.4-0.7c0.2-0.6-0.1-1.2-0.7-1.4c-2.9-1-5.6-0.9-8.5,0c-3,1-2.7,0.3-4.2-0.7
	c-1-0.6-2.2-0.6-3,0c-0.5,0.3-0.7,0.8-0.9,1.2c-0.7,1-2.4,1-3.8,0.6C53.8,31.1,52.1,30,50,30c-0.6-0.1-1.1,0.5-1.2,1.1
	C48.8,31.7,49.2,32.2,49.9,32.2z"/>
<path class="st1" d="M73.5,56.7c-1.3-0.5-2-0.3-3,0.7c-0.2,0.2-0.3,0.4-1,0.3c-0.2,0-0.4-0.2-0.4-0.2c-0.3-0.5-1-0.8-1.5-0.5
	c-1.3,0.6-0.5,2.4,1.4,2.9c0.9,0.2,2,0,2.6-0.5c0.1,0,0.7-0.7,0.6-0.7c0.5,0,1.4,1,5.4-0.1c0.6-0.2,1-0.8,0.8-1.4
	c-0.2-0.6-0.8-1-1.4-0.8C74.1,57.3,73.8,56.7,73.5,56.7z"/>
<path class="st1" d="M76.8,67c-1.3,0.4-2.8,0.1-4.4-0.2c-5.8-1.1-8.3,0.1-14,1c-4.7,0.7-8.2,0.1-10.4-1.9c-0.5-0.4-1.2-0.4-1.6,0.1
	c-0.4,0.5-0.4,1.2,0.1,1.6c2,1.9,4.9,2.8,8.4,2.8c5.4,0,10.4-2.3,15.3-1.6c2.3,0.3,4.7,1.2,7.2,0.5c0.6-0.2,0.9-0.8,0.8-1.4
	C78,67.2,77.4,66.8,76.8,67z"/>
<path class="st1" d="M5.4,30.2c2.8,2.9,5.6,5.9,9.3,7.6c2.3,1.1,5.1,1.6,7.6,1.1c-0.3,0.3-0.6,0.6-0.9,1c-0.2,0.3-0.2,0.6-0.1,0.9
	c-0.4,2.4,7.6,6.3,10.3,7.3c1.4,3.7,2,5.6,2.8,7.9c4.7,14.2,1.8,19.9,1.7,21c-4,0.2-8,0.4-12.1,0.7c-0.7,0.1-1.2,0.7-1,1.4
	c0.9,3.4,2.4,6,4.3,7.8c0,0,0,0,0,0c0,0,0,0,0,0c1.2,1.1,2.3,1.6,3.4,2c-1.6-0.5-2.6-1.1-3.4-2c1,1.2,2.2,2.2,3.4,2.9
	c3.5,2.2,7,2.1,11.1,2.3c5.7,0.2,12,0.1,17.7,0.1c8.9-0.2,17.9,1.1,25.6-3.6c0.5-0.2,0.9-0.5,1.4-0.8c2.3-0.8,4-3,5.1-5.2
	c6.4-12.7-1.3-27.8-4.7-38.7c-1.9-6-3.1-12.5-2-18.7c3.9-0.8,6.2-1.4,10-2.2c-0.2,0.6,0.1,1.2,0.7,1.4c0.1,0,0.2,0.1,0.4,0.1
	c0.5,0,0.9-0.3,1.1-0.8c0.8-2.6,0.5-5.6-0.9-7.9c-2.3-3.6-7.2-4.1-10.3-5c-11.5-3.5-21.6,2-36.1-0.5c-5.6-1-11.8,0.9-16.2,4.9
	c-2,1.8-3.5,4-4.6,6.4c-1.6-1.1-3.3-2-5.1-2.8c-0.7-0.3-1.4,0.1-1.6,0.8l-0.1,0.5c-4.5-3.3-10-4.9-15.6-4.4
	c-6.4,0.5-8.2,4.9-5.7,8.5C2,26.6,3.6,28.3,5.4,30.2z M2.6,26.1c0.7,0.7,0.6,0.6,6,5.6C7.2,30.5,3.8,27.5,2.6,26.1z M25.6,79.9
	c17.8-1.2,35.6-1.3,53-0.1c-1.4,2.5-1,5.8,0.6,7.6c-14.4,1.7-24,1.2-37.1,0.8c-3.7-0.1-7.5-0.2-10.7-1.5
	C28.7,85.8,26.7,83.5,25.6,79.9z M95.4,20.7c-3.4,0.7-5.6,1.2-9.8,2.1c0.5-1.8,1.3-3.5,2.6-4.8c1.3-1.3,2.6-1.4,4.2-1.9
	c0.3-0.1,0.7,0,1-0.1C94.8,17.3,95.4,19,95.4,20.7z M35.2,17c3.9-3.5,9.4-5.2,14.3-4.4c7.3,1.3,13.1,0.6,18.8,0
	c13.2-1.4,13.2-0.6,20.3,1.3c-4.1,2.3-6.7,7.1-7.5,13.9c-1.5,13.6,6.8,25.3,9.1,37.8c1.3,7,0.3,13.6-2.6,17.9
	c-1.1,1.6-2.2,2.6-3.4,3c-0.8,0-1.6-0.2-2.2-0.8c-1-1-1.3-2.9-0.5-4.1c0.4-0.7,0.7-1.9,0.6-2.8c0.1-0.9-0.7-1.6-1.6-1.2
	c-13.8-1-27.9-1.3-42.1-0.7c2.6-9.5-0.9-19.2-4.2-28c3.7,0.9,6.3,0.7,9,0.9c-1.3,0.6-2.8,1-3.3,0.9c-0.6-0.3-1.2,0-1.5,0.6
	c-0.3,0.6,0,1.2,0.6,1.5l0,0c8.3,3.8,17.5,3.1,19.5,1.8c3.8,3.5,3.8,4,4.6,4c1,0,1.5-1.2,0.8-1.9c-4.5-4.3-3.8-3.7-4.2-4
	c0.1-0.9-0.1-1.7-0.2-2.1c-1.4-4.8-3.8-9.3-7-13.2c-0.6-0.7-1.7-0.4-1.9,0.4c-2.9-4.8-7.1-8.7-12.2-11.3c-0.3-0.1-0.6-0.2-0.9,0
	c-0.7,0.3-0.5,0.8-1.1,1.6c-1.6-1.9-3.3-3.5-5.3-5C31.9,20.7,33.3,18.7,35.2,17z M2.3,20.8c0.1-0.8,0.7-1.5,1.6-2
	c3.1-1.7,12.2-1.2,18.5,4.3c0.7,0.6,1.7,0.2,1.8-0.6l0.2-0.9c1.6,0.8,3.1,1.7,4.5,2.7c0,0,0,0,0,0c2.4,1.7,4.6,3.8,6.4,6.2
	c0.4,0.5,1.1,0.6,1.6,0.2c0.6-0.4,1.1-1,1.4-1.6c5.2,2.9,9.4,7.5,11.8,12.9c0.2,0.4,0.6,0.7,1,0.7c0.8,0,1.1-0.7,1.3-1.5
	c2.1,3,3.7,6.4,4.8,10c0.4,1.4,0.3,1.7-1.3,1.9c-4.1,0.6-8.4,0.3-12.4-0.9c1.5-0.6,2.8-1.4,3.3-2c0.3-0.4,0.3-0.9,0-1.3
	c-1.2-1.6-5.4-1-6.8-1.3c-5.8-0.9-11.5-3.3-16.2-7.1c0.7-0.6,1.7-1,2.6-1c1.1,0,1.5-1.4,0.7-2c-1.9-1.4-4.1-1.4-6.3-1.4
	c-6.1,0-4.4-0.5-16.1-10.7C3.4,23.9,2,22.3,2.3,20.8z"/>
<path class="st1" d="M29.1,10.7l-4.6-2.4c-0.6-0.3-1.2-0.1-1.5,0.5c-0.3,0.6-0.1,1.2,0.5,1.5c4.7,2.4,4.7,2.5,5.1,2.5
	C29.8,12.9,30.2,11.3,29.1,10.7z"/>
<path class="st1" d="M32.8,9.7c0.6-0.1,1-0.7,0.9-1.3c-0.4-2.3-1.1-4.6-2.1-6.8c-0.3-0.6-0.9-0.8-1.5-0.5c-0.6,0.3-0.8,0.9-0.5,1.5
	c0.9,1.9,1.6,4,1.9,6.1C31.6,9.4,32.2,9.8,32.8,9.7z"/>
<path class="st1" d="M37.1,1l-0.5,5.4c-0.1,0.6,0.4,1.2,1,1.2c0.6,0.1,1.2-0.4,1.2-1l0.5-5.4c0.1-0.6-0.4-1.2-1-1.2
	C37.7-0.1,37.1,0.4,37.1,1z"/>
</svg>
