<?xml version="1.0" encoding="utf-8"?>
<!-- Generator: Adobe Illustrator 28.3.0, SVG Export Plug-In . SVG Version: 6.00 Build 0)  -->
<svg version="1.1" id="Layer_1" xmlns="http://www.w3.org/2000/svg" xmlns:xlink="http://www.w3.org/1999/xlink" x="0px" y="0px"
	 viewBox="0 0 91 60" style="enable-background:new 0 0 91 60;" xml:space="preserve">
<style type="text/css">
	.st0{fill:#27466F;}
</style>
<path class="st0" d="M70.9,34.4l2.6-0.1c28.4-0.5,18.9-42.2-11.4-31.2c-22.4,8.1-18.3,45.6,5.7,51.7c10.6,2.7,22.4,0.8,13.6-2.2
	c-7.5-2.5-13.6-9.8-13.2-15.8C68.3,35.5,69.5,34.4,70.9,34.4z"/>
<path class="st0" d="M15.6,1.6C-11.7,12.1-0.6,57.9,29.7,59.9c7.9,0.5,9.9-1.3,4-3.6C27.9,54.2,20.6,43.9,19.8,37
	c-0.2-1.4,0.9-2.5,2.3-2.5c8,0,11.3,0,15.9-6.4C49.4,12.3,34.2-5.5,15.6,1.6z"/>
</svg>
