<?xml version="1.0" encoding="utf-8"?>
<!-- Generator: Adobe Illustrator 28.3.0, SVG Export Plug-In . SVG Version: 6.00 Build 0)  -->
<svg version="1.1" id="Layer_1" xmlns="http://www.w3.org/2000/svg" xmlns:xlink="http://www.w3.org/1999/xlink" x="0px" y="0px"
	 viewBox="0 0 146 146" style="enable-background:new 0 0 146 146;" xml:space="preserve">
<style type="text/css">
	.st0{fill:#ED7931;stroke:#0A102F;stroke-width:4;}
</style>
<path class="st0" d="M70.8,3.4c1.2-1.3,3.2-1.3,4.4,0L84.9,14c1.8,2,4.7,2.8,7.3,2l13.7-4.4c1.7-0.5,3.5,0.5,3.8,2.2l3.1,14
	c0.6,2.7,2.7,4.8,5.3,5.3l14,3.1c1.7,0.4,2.8,2.2,2.2,3.8L130,53.8c-0.8,2.6-0.1,5.5,2,7.3l10.6,9.7c1.3,1.2,1.3,3.2,0,4.4L132,84.9
	c-2,1.8-2.8,4.7-2,7.3l4.4,13.7c0.5,1.7-0.5,3.5-2.2,3.8l-14,3.1c-2.7,0.6-4.8,2.7-5.3,5.3l-3.1,14c-0.4,1.7-2.2,2.8-3.8,2.2
	L92.2,130c-2.6-0.8-5.5-0.1-7.3,2l-9.7,10.6c-1.2,1.3-3.2,1.3-4.4,0L61.1,132c-1.8-2-4.7-2.8-7.3-2l-13.7,4.4
	c-1.7,0.5-3.5-0.5-3.8-2.2l-3.1-14c-0.6-2.7-2.7-4.8-5.3-5.3l-14-3.1c-1.7-0.4-2.8-2.2-2.2-3.8L16,92.2c0.8-2.6,0.1-5.5-2-7.3
	L3.4,75.2c-1.3-1.2-1.3-3.2,0-4.4L14,61.1c2-1.8,2.8-4.7,2-7.3l-4.4-13.7c-0.5-1.7,0.5-3.5,2.2-3.8l14-3.1c2.7-0.6,4.8-2.7,5.3-5.3
	l3.1-14c0.4-1.7,2.2-2.8,3.8-2.2L53.8,16c2.6,0.8,5.5,0.1,7.3-2L70.8,3.4z"/>
</svg>
